<?xml version="1.0" encoding="iso-8859-1"?>
<!-- Generator: Adobe Illustrator 19.0.0, SVG Export Plug-In . SVG Version: 6.00 Build 0)  -->
<svg version="1.1" id="Capa_1" xmlns="http://www.w3.org/2000/svg" xmlns:xlink="http://www.w3.org/1999/xlink" x="0px" y="0px"
	 viewBox="0 0 490.667 490.667" style="enable-background:new 0 0 490.667 490.667;" xml:space="preserve">
<g>
	<g>
		<circle cx="42.667" cy="384" r="42.667"/>
	</g>
</g>
<g>
	<g>
		<circle cx="384" cy="42.667" r="42.667"/>
	</g>
</g>
<g>
	<g>
		<path d="M359.531,67.136c-4.16-4.16-10.923-4.16-15.083,0L67.115,344.469c-4.16,4.16-4.16,10.923,0,15.083
			c2.091,2.069,4.821,3.115,7.552,3.115c2.731,0,5.461-1.045,7.531-3.115L359.531,82.219
			C363.691,78.059,363.691,71.296,359.531,67.136z"/>
	</g>
</g>
<g>
	<g>
		<circle cx="213.333" cy="213.333" r="21.333"/>
	</g>
</g>
<g>
	<g>
		<path d="M181.333,426.667h-42.667c-5.888,0-10.667,4.779-10.667,10.667V480c0,5.888,4.779,10.667,10.667,10.667h42.667
			c5.888,0,10.667-4.779,10.667-10.667v-42.667C192,431.445,187.221,426.667,181.333,426.667z"/>
	</g>
</g>
<g>
	<g>
		<path d="M480,128h-42.667c-5.888,0-10.667,4.779-10.667,10.667v42.667c0,5.888,4.779,10.667,10.667,10.667H480
			c5.888,0,10.667-4.779,10.667-10.667v-42.667C490.667,132.779,485.888,128,480,128z"/>
	</g>
</g>
<g>
	<g>
		<path d="M437.333,149.333l-18.048-0.043c-80.597-0.256-156.459-0.576-213.504,56.491
			c-57.045,57.067-56.789,133.056-56.491,213.504l0.043,18.048c0,5.888,4.779,10.667,10.667,10.667s10.667-4.779,10.667-10.667
			l-0.043-18.133c-0.299-79.189-0.533-147.563,50.24-198.336c50.773-50.773,119.147-50.496,198.336-50.24l18.133,0.043
			c5.888,0,10.667-4.779,10.667-10.667S443.221,149.333,437.333,149.333z"/>
	</g>
</g>
<g>
</g>
<g>
</g>
<g>
</g>
<g>
</g>
<g>
</g>
<g>
</g>
<g>
</g>
<g>
</g>
<g>
</g>
<g>
</g>
<g>
</g>
<g>
</g>
<g>
</g>
<g>
</g>
<g>
</g>
</svg>
