<?xml version="1.0" encoding="utf-8"?>
<!-- Generator: Adobe Illustrator 16.0.0, SVG Export Plug-In . SVG Version: 6.00 Build 0)  -->
<!DOCTYPE svg PUBLIC "-//W3C//DTD SVG 1.1//EN" "http://www.w3.org/Graphics/SVG/1.1/DTD/svg11.dtd">
<svg version="1.1" id="Capa_1" xmlns="http://www.w3.org/2000/svg" xmlns:xlink="http://www.w3.org/1999/xlink" x="0px" y="0px"
	 width="144px" height="148.459px" viewBox="0 0 144 148.459" enable-background="new 0 0 144 148.459" xml:space="preserve">
<g>
	<g>
		<path fill="#FFFFFF" d="M72,149c-6.624,0-13.008-0.864-19.152-2.592c-6.144-1.729-11.88-4.152-17.208-7.272
			c-5.328-3.12-10.176-6.864-14.544-11.231c-4.368-4.366-8.112-9.217-11.232-14.545c-3.12-5.327-5.544-11.062-7.272-17.207
			S0,83.624,0,77s0.864-13.008,2.592-19.152s4.152-11.88,7.272-17.208c3.12-5.328,6.864-10.176,11.232-14.544
			c4.368-4.368,9.216-8.112,14.544-11.232c5.328-3.12,11.064-5.544,17.208-7.272C58.992,5.864,65.376,5,72,5
			c9.889,0,19.225,1.896,28.008,5.688c8.784,3.792,16.416,8.928,22.896,15.408c6.479,6.48,11.615,14.112,15.408,22.896
			C142.104,57.776,144,67.112,144,77c0,6.624-0.863,13.008-2.592,19.152c-1.729,6.143-4.152,11.879-7.271,17.207
			c-3.121,5.328-6.865,10.177-11.232,14.545c-4.366,4.367-9.217,8.111-14.545,11.23c-5.327,3.12-11.062,5.545-17.207,7.272
			C85.008,148.136,78.624,149,72,149z M106.704,47.336H38.448c-0.672,0-1.248,0.216-1.728,0.648S36,49.016,36,49.784v7.632
			c0,0.384,0.144,0.576,0.432,0.576l35.856,20.447l0.288,0.145c0.191,0,0.336-0.048,0.433-0.145l34.704-20.447
			c0.191-0.096,0.336-0.144,0.432-0.144c0.097,0,0.24-0.048,0.433-0.144c0.385,0,0.575-0.192,0.575-0.576v-7.344
			c0-0.768-0.239-1.368-0.721-1.8C107.951,47.552,107.376,47.336,106.704,47.336z M57.744,78.008
			c0.096-0.096,0.144-0.24,0.144-0.432c0-0.289-0.096-0.432-0.288-0.432L37.008,65.336c-0.288-0.096-0.528-0.096-0.72,0
			c-0.192,0-0.288,0.144-0.288,0.432v30.96c0,0.289,0.144,0.479,0.432,0.576h0.288c0.192,0,0.288-0.049,0.288-0.145L57.744,78.008z
			 M82.8,80.312c-0.096-0.289-0.337-0.336-0.721-0.146l-7.92,4.606c-0.96,0.576-1.967,0.576-3.024,0l-6.912-3.887
			c-0.288-0.191-0.528-0.191-0.72,0l-26.352,24.48c-0.096,0.095-0.144,0.287-0.144,0.574c0,0.097,0.096,0.24,0.288,0.433
			c0.576,0.192,0.96,0.288,1.152,0.288h67.536c0.192,0,0.386-0.096,0.576-0.288c0-0.384-0.047-0.623-0.144-0.72L82.8,80.312z
			 M108.721,64.76h-0.576L88.561,76.424c-0.19,0-0.287,0.144-0.287,0.432c-0.097,0.096-0.049,0.24,0.144,0.431L108,98.456
			c0.191,0.192,0.336,0.288,0.432,0.288h0.289c0.288-0.288,0.432-0.479,0.432-0.575V65.336
			C109.152,65.144,109.008,64.952,108.721,64.76z"/>
	</g>
</g>
</svg>
