<svg height="512pt" viewBox="-10 0 512 512.00001" width="512pt" xmlns="http://www.w3.org/2000/svg"><path d="m282.136719 120.675781c0-21.996093-17.894531-39.894531-39.894531-39.894531h-47.425782v84.386719l-17.613281 18.363281h-69.613281v186.261719h275.15625v-192.328125h-100.609375zm-113.527344 219.144531h-31.046875v-126.3125h31.046875zm184.164063-132.382812v132.382812h-154.1875v-135.277343l26.203124-27.324219v-66.460938h17.453126c5.472656 0 9.921874 4.449219 9.921874 9.917969v86.761719zm0 0"/><path d="m420.234375 72.101562c-46.496094-46.496093-108.3125-72.101562-174.066406-72.101562-65.753907 0-127.570313 25.605469-174.066407 72.101562-46.496093 46.492188-72.101562 108.3125-72.101562 174.066407 0 49.367187 14.460938 96.722656 41.886719 137.394531l-27.921875 128.4375 130.328125-41.679688c32.054687 14.613282 66.292969 22.015626 101.875 22.015626 65.753906 0 127.570312-25.605469 174.066406-72.101563s72.101563-108.3125 72.101563-174.066406c0-65.753907-25.605469-127.574219-72.101563-174.066407zm-174.066406 390.257813c-33.050781 0-64.773438-7.261719-94.285157-21.589844l-5.394531-2.621093-92.203125 29.488281 19.691406-90.566407-3.859374-5.402343c-26.261719-36.769531-40.140626-80.164063-40.140626-125.5-.003906-119.210938 96.980469-216.195313 216.191407-216.195313 119.210937 0 216.195312 96.984375 216.195312 216.195313 0 119.207031-96.984375 216.191406-216.195312 216.191406zm0 0"/></svg>