<?xml version="1.0" encoding="iso-8859-1"?>
<!-- Generator: Adobe Illustrator 19.0.0, SVG Export Plug-In . SVG Version: 6.00 Build 0)  -->
<svg version="1.1" id="Capa_1" xmlns="http://www.w3.org/2000/svg" xmlns:xlink="http://www.w3.org/1999/xlink" x="0px" y="0px"
	 viewBox="0 0 512 512" style="enable-background:new 0 0 512 512;" xml:space="preserve">
<g>
	<g>
		<g>
			<path d="M486.4,38.4H25.6C11.468,38.415,0.015,49.868,0,64v307.2c0.011,7.028,2.925,13.74,8.054,18.546
				c0.146,0.135,0.3,0.252,0.453,0.375c4.667,4.278,10.762,6.66,17.093,6.679h86.043c7.066,43.697,67.921,76.8,144.357,76.8
				s137.292-33.103,144.357-76.8H486.4c14.132-0.015,25.585-11.468,25.6-25.6V64C511.985,49.868,500.532,38.415,486.4,38.4z
				 M17.067,370.925V64.275L240.9,217.6L17.067,370.925z M256,456.533c-69.383,0-128-31.258-128-68.267S186.617,320,256,320
				s128,31.258,128,68.267S325.383,456.533,256,456.533z M494.933,371.2c-0.003,4.712-3.822,8.53-8.533,8.533h-86.043
				c-7.066-43.697-67.921-76.8-144.357-76.8s-137.292,33.103-144.357,76.8H34.417l224.231-153.6h236.285V371.2z M494.933,209.067
				H258.648L34.417,55.467H486.4c4.712,0.003,8.53,3.822,8.533,8.533V209.067z"/>
			<path d="M221.867,345.6h-25.6c-2.264-0.001-4.435,0.897-6.035,2.498c-1.601,1.601-2.499,3.772-2.498,6.035V422.4
				c0,4.713,3.82,8.533,8.533,8.533s8.533-3.82,8.533-8.533v-25.6h17.067c14.138,0,25.6-11.461,25.6-25.6
				S236.005,345.6,221.867,345.6z M221.867,379.733H204.8v-17.067h17.067c4.713,0,8.533,3.82,8.533,8.533
				S226.58,379.733,221.867,379.733z"/>
			<path d="M315.733,345.6c-2.264-0.001-4.435,0.897-6.035,2.498c-1.601,1.601-2.499,3.772-2.498,6.035v25.6h-25.6v-25.6
				c0-4.713-3.821-8.533-8.533-8.533c-4.713,0-8.533,3.82-8.533,8.533V422.4c0,4.713,3.821,8.533,8.533,8.533
				c4.713,0,8.533-3.82,8.533-8.533v-25.6h25.6v25.6c0,4.713,3.82,8.533,8.533,8.533s8.533-3.82,8.533-8.533v-68.267
				c0.001-2.264-0.897-4.435-2.498-6.035C320.168,346.497,317.997,345.599,315.733,345.6z"/>
			<path d="M34.133,123.733c0,4.713,3.82,8.533,8.533,8.533s8.533-3.82,8.533-8.533c4.713,0,8.533-3.82,8.533-8.533
				s-3.82-8.533-8.533-8.533c0-4.713-3.82-8.533-8.533-8.533s-8.533,3.821-8.533,8.533c-4.713,0-8.533,3.82-8.533,8.533
				S29.421,123.733,34.133,123.733z"/>
			<path d="M204.8,209.067c0-4.713-3.82-8.533-8.533-8.533s-8.533,3.82-8.533,8.533c-4.713,0-8.533,3.821-8.533,8.533
				c0,4.713,3.82,8.533,8.533,8.533c0,4.713,3.82,8.533,8.533,8.533s8.533-3.82,8.533-8.533c4.713,0,8.533-3.821,8.533-8.533
				C213.333,212.887,209.513,209.067,204.8,209.067z"/>
			<path d="M51.2,311.467c0-4.713-3.82-8.533-8.533-8.533s-8.533,3.82-8.533,8.533c-4.713,0-8.533,3.82-8.533,8.533
				s3.821,8.533,8.533,8.533c0,4.713,3.82,8.533,8.533,8.533s8.533-3.82,8.533-8.533c4.713,0,8.533-3.82,8.533-8.533
				S55.913,311.467,51.2,311.467z"/>
			<path d="M153.6,209.067h-26.812c-0.796-3.054-2.016-5.982-3.624-8.698l18.977-18.977c2.162-2.154,3.008-5.299,2.22-8.247
				c-0.788-2.948-3.091-5.251-6.039-6.039c-2.948-0.788-6.093,0.058-8.247,2.22l-18.977,18.977
				c-2.716-1.608-5.643-2.828-8.698-3.624v-26.812c0-4.713-3.821-8.533-8.533-8.533c-4.713,0-8.533,3.821-8.533,8.533v26.812
				c-3.054,0.796-5.982,2.016-8.698,3.624l-18.977-18.977c-2.154-2.162-5.299-3.008-8.247-2.22
				c-2.948,0.788-5.251,3.091-6.039,6.039c-0.788,2.948,0.058,6.093,2.22,8.247l18.977,18.977c-1.608,2.716-2.828,5.644-3.624,8.698
				H34.133c-4.713,0-8.533,3.821-8.533,8.533c0,4.713,3.821,8.533,8.533,8.533h26.812c0.796,3.054,2.016,5.982,3.624,8.698
				l-18.977,18.977c-2.162,2.154-3.008,5.299-2.22,8.247c0.788,2.948,3.091,5.251,6.039,6.039c2.948,0.788,6.093-0.058,8.247-2.22
				l18.977-18.977c2.716,1.608,5.644,2.828,8.698,3.624v26.812c0,4.713,3.821,8.533,8.533,8.533c4.713,0,8.533-3.821,8.533-8.533
				v-26.812c3.054-0.796,5.982-2.016,8.698-3.624l18.977,18.977c2.154,2.162,5.299,3.008,8.247,2.22
				c2.948-0.788,5.251-3.091,6.039-6.039c0.788-2.948-0.058-6.093-2.22-8.247l-18.977-18.977c1.608-2.716,2.828-5.643,3.624-8.698
				H153.6c4.713,0,8.533-3.821,8.533-8.533C162.133,212.887,158.313,209.067,153.6,209.067z M93.867,234.667
				c-9.426,0-17.067-7.641-17.067-17.067c0-9.426,7.641-17.067,17.067-17.067s17.067,7.641,17.067,17.067
				C110.921,227.021,103.287,234.654,93.867,234.667z"/>
		</g>
	</g>
</g>
<g>
</g>
<g>
</g>
<g>
</g>
<g>
</g>
<g>
</g>
<g>
</g>
<g>
</g>
<g>
</g>
<g>
</g>
<g>
</g>
<g>
</g>
<g>
</g>
<g>
</g>
<g>
</g>
<g>
</g>
</svg>
