<?xml version="1.0" encoding="utf-8"?>
<!-- Generator: Adobe Illustrator 16.0.0, SVG Export Plug-In . SVG Version: 6.00 Build 0)  -->
<!DOCTYPE svg PUBLIC "-//W3C//DTD SVG 1.1//EN" "http://www.w3.org/Graphics/SVG/1.1/DTD/svg11.dtd">
<svg version="1.1" id="Layer_1" xmlns="http://www.w3.org/2000/svg" xmlns:xlink="http://www.w3.org/1999/xlink" x="0px" y="0px"
	 width="144px" height="137.033px" viewBox="0 0 144 137.033" enable-background="new 0 0 144 137.033" xml:space="preserve">
<path d="M140.346,44.944c-4.228-8.668-11.486-13.522-18.51-18.221c-5.234-3.506-10.17-6.817-13.666-11.558l-0.646-0.874
	c-2.057-2.766-4.401-5.902-4.762-8.535c-0.359-2.663-2.457-4.514-5.438-4.432c-2.693,0.185-4.781,2.427-4.781,5.131v91.617
	c-4.31-2.611-9.614-4.215-15.424-4.215c-14.169,0-25.707,9.223-25.707,20.564c0,11.34,11.537,20.563,25.707,20.563
	c14.18,0,25.707-9.224,25.707-20.563V54.494c7.722,2.951,20.358,10.468,23.834,28.021c-0.647,0.955-1.265,1.994-1.984,2.807
	c-1.882,2.129-1.665,5.378,0.464,7.249c2.117,1.892,5.366,1.666,7.248-0.462c6.438-7.312,10.868-18.891,11.559-30.211
	C144.283,56.317,143.039,50.457,140.346,44.944z"/>
<path d="M5.139,42.445h61.695c2.838,0,5.142-2.303,5.142-5.141c0-2.838-2.304-5.141-5.142-5.141H5.139
	c-2.838,0-5.141,2.303-5.141,5.141C-0.002,40.143,2.301,42.445,5.139,42.445z"/>
<path d="M35.987,63.011H5.139c-2.838,0-5.141,2.303-5.141,5.141s2.303,5.141,5.141,5.141h30.848c2.838,0,5.142-2.303,5.142-5.141
	S38.825,63.011,35.987,63.011z"/>
<path d="M35.987,93.859H5.139c-2.838,0-5.141,2.303-5.141,5.141s2.303,5.142,5.141,5.142h30.848c2.838,0,5.142-2.304,5.142-5.142
	S38.825,93.859,35.987,93.859z"/>
</svg>
